<svg width="232" height="428" viewBox="0 0 232 428" fill="none" xmlns="http://www.w3.org/2000/svg">
<g filter="url(#filter0_d_153_827)">
<mask id="path-1-inside-1_153_827" fill="white">
<path d="M20.9891 30.5967C20.9891 25.0739 25.4663 20.5967 30.9891 20.5967H201.107C206.63 20.5967 211.107 25.0739 211.107 30.5967V397.105C211.107 402.627 206.63 407.105 201.107 407.105H30.9891C25.4663 407.105 20.9891 402.627 20.9891 397.105V30.5967Z"/>
</mask>
<path d="M20.9891 30.5967C20.9891 25.0739 25.4663 20.5967 30.9891 20.5967H201.107C206.63 20.5967 211.107 25.0739 211.107 30.5967V397.105C211.107 402.627 206.63 407.105 201.107 407.105H30.9891C25.4663 407.105 20.9891 402.627 20.9891 397.105V30.5967Z" fill="#ECF0F9"/>
<path d="M15.9891 25.5967C15.9891 17.3124 22.7049 10.5967 30.9891 10.5967H201.107C209.392 10.5967 216.107 17.3124 216.107 25.5967L206.107 30.5967C206.107 30.5967 203.869 30.5967 201.107 30.5967H30.9891C28.2277 30.5967 25.9891 30.5967 25.9891 30.5967L15.9891 25.5967ZM216.107 402.105C216.107 410.389 209.392 417.105 201.107 417.105H30.9891C22.7049 417.105 15.9891 410.389 15.9891 402.105L25.9891 397.105C25.9891 397.105 28.2277 397.105 30.9891 397.105H201.107C203.869 397.105 206.107 397.105 206.107 397.105L216.107 402.105ZM30.9891 417.105C22.7049 417.105 15.9891 410.389 15.9891 402.105V25.5967C15.9891 17.3124 22.7049 10.5967 30.9891 10.5967V30.5967C28.2277 30.5967 25.9891 30.5967 25.9891 30.5967V397.105C25.9891 397.105 28.2277 397.105 30.9891 397.105V417.105ZM201.107 10.5967C209.392 10.5967 216.107 17.3124 216.107 25.5967V402.105C216.107 410.389 209.392 417.105 201.107 417.105V397.105C203.869 397.105 206.107 397.105 206.107 397.105V30.5967C206.107 30.5967 203.869 30.5967 201.107 30.5967V10.5967Z" fill="#132039" mask="url(#path-1-inside-1_153_827)"/>
</g>
<defs>
<filter id="filter0_d_153_827" x="0.989136" y="0.59671" width="230.118" height="426.508" filterUnits="userSpaceOnUse" color-interpolation-filters="sRGB">
<feFlood flood-opacity="0" result="BackgroundImageFix"/>
<feColorMatrix in="SourceAlpha" type="matrix" values="0 0 0 0 0 0 0 0 0 0 0 0 0 0 0 0 0 0 127 0" result="hardAlpha"/>
<feMorphology radius="5" operator="dilate" in="SourceAlpha" result="effect1_dropShadow_153_827"/>
<feOffset/>
<feGaussianBlur stdDeviation="7.5"/>
<feComposite in2="hardAlpha" operator="out"/>
<feColorMatrix type="matrix" values="0 0 0 0 0.4 0 0 0 0 0.536 0 0 0 0 0.8 0 0 0 0.3 0"/>
<feBlend mode="normal" in2="BackgroundImageFix" result="effect1_dropShadow_153_827"/>
<feBlend mode="normal" in="SourceGraphic" in2="effect1_dropShadow_153_827" result="shape"/>
</filter>
</defs>
</svg>
