<svg width="35" height="44" viewBox="0 0 35 44" fill="none" xmlns="http://www.w3.org/2000/svg">
<mask id="path-2-inside-1_1278_546" fill="white">
<path fill-rule="evenodd" clip-rule="evenodd" d="M22.774 12.226C22.8457 12.2974 22.9025 12.3823 22.9413 12.4757C22.98 12.5692 23 12.6693 23 12.7705C23 12.8717 22.98 12.9719 22.9413 13.0653C22.9025 13.1587 22.8457 13.2436 22.774 13.3151L14.0874 22.0002L22.774 30.6853C22.8455 30.7568 22.9023 30.8417 22.941 30.9352C22.9797 31.0286 22.9996 31.1288 22.9996 31.2299C22.9996 31.331 22.9797 31.4312 22.941 31.5246C22.9023 31.618 22.8455 31.7029 22.774 31.7744C22.7025 31.846 22.6176 31.9027 22.5242 31.9414C22.4308 31.9801 22.3306 32 22.2295 32C22.1284 32 22.0282 31.9801 21.9348 31.9414C21.8413 31.9027 21.7564 31.846 21.6849 31.7744L12.4552 22.5448C12.3836 22.4733 12.3268 22.3884 12.288 22.295C12.2492 22.2015 12.2293 22.1014 12.2293 22.0002C12.2293 21.899 12.2492 21.7989 12.288 21.7054C12.3268 21.612 12.3836 21.5271 12.4552 21.4557L21.6849 12.226C21.7564 12.1543 21.8413 12.0975 21.9347 12.0587C22.0281 12.02 22.1283 12 22.2295 12C22.3307 12 22.4308 12.02 22.5243 12.0587C22.6177 12.0975 22.7026 12.1543 22.774 12.226Z"/>
</mask>
<path d="M22.774 13.3151L19.9492 10.4831L19.9459 10.4864L22.774 13.3151ZM14.0874 22.0002L11.2592 19.1715L8.43001 22.0002L11.2592 24.8289L14.0874 22.0002ZM22.774 30.6853L25.6025 27.8569L25.6022 27.8567L22.774 30.6853ZM22.2295 32V28V32ZM21.6849 31.7744L18.8565 34.6029L21.6849 31.7744ZM12.4552 22.5448L15.2837 19.7163L15.2801 19.7128L12.4552 22.5448ZM12.4552 21.4557L15.2801 24.2877L15.2837 24.2841L12.4552 21.4557ZM21.6849 12.226L24.5134 15.0544L24.5169 15.0508L21.6849 12.226ZM19.9492 15.058C19.6483 14.7578 19.4096 14.4013 19.2467 14.0088L26.6358 10.9427C26.3954 10.3633 26.043 9.83697 25.5989 9.39396L19.9492 15.058ZM19.2467 14.0088C19.0838 13.6163 19 13.1955 19 12.7705H27C27 12.1432 26.8762 11.5221 26.6358 10.9427L19.2467 14.0088ZM19 12.7705C19 12.3456 19.0838 11.9248 19.2467 11.5322L26.6358 14.5984C26.8763 14.019 27 13.3978 27 12.7705H19ZM19.2467 11.5322C19.4096 11.1397 19.6483 10.7832 19.9492 10.4831L25.5989 16.1471C26.043 15.7041 26.3954 15.1778 26.6358 14.5984L19.2467 11.5322ZM19.9459 10.4864L11.2592 19.1715L16.9155 24.8289L25.6022 16.1437L19.9459 10.4864ZM11.2592 24.8289L19.9459 33.514L25.6022 27.8567L16.9155 19.1715L11.2592 24.8289ZM19.9456 33.5138C19.6457 33.2138 19.4078 32.8578 19.2455 32.4659L26.6365 29.4044C26.3968 28.8257 26.0454 28.2999 25.6025 27.8569L19.9456 33.5138ZM19.2455 32.4659C19.0831 32.074 18.9996 31.654 18.9996 31.2299H26.9996C26.9996 30.6035 26.8762 29.9832 26.6365 29.4044L19.2455 32.4659ZM18.9996 31.2299C18.9996 30.8057 19.0831 30.3857 19.2455 29.9939L26.6365 33.0553C26.8762 32.4766 26.9996 31.8563 26.9996 31.2299H18.9996ZM19.2455 29.9939C19.4078 29.602 19.6457 29.2459 19.9456 28.946L25.6025 34.6029C26.0454 34.1599 26.3968 33.6341 26.6365 33.0553L19.2455 29.9939ZM19.9456 28.946C20.2455 28.6461 20.6016 28.4082 20.9935 28.2459L24.0549 35.6369C24.6337 35.3972 25.1595 35.0458 25.6025 34.6029L19.9456 28.946ZM20.9935 28.2459C21.3853 28.0835 21.8053 28 22.2295 28V36C22.8559 36 23.4762 35.8766 24.0549 35.6369L20.9935 28.2459ZM22.2295 28C22.6536 28 23.0736 28.0835 23.4655 28.2459L20.404 35.6369C20.9828 35.8766 21.6031 36 22.2295 36V28ZM23.4655 28.2459C23.8574 28.4082 24.2134 28.6461 24.5134 28.946L18.8565 34.6029C19.2994 35.0458 19.8253 35.3972 20.404 35.6369L23.4655 28.2459ZM24.5134 28.946L15.2837 19.7163L9.62682 25.3732L18.8565 34.6029L24.5134 28.946ZM15.2801 19.7128C15.581 20.0129 15.8197 20.3694 15.9826 20.7619L8.59347 23.8281C8.83388 24.4074 9.18625 24.9337 9.6304 25.3768L15.2801 19.7128ZM15.9826 20.7619C16.1454 21.1544 16.2293 21.5752 16.2293 22.0002H8.22928C8.22928 22.6275 8.35304 23.2487 8.59347 23.8281L15.9826 20.7619ZM16.2293 22.0002C16.2293 22.4252 16.1454 22.846 15.9826 23.2385L8.59347 20.1723C8.35304 20.7517 8.22928 21.3729 8.22928 22.0002H16.2293ZM15.9826 23.2385C15.8197 23.631 15.581 23.9875 15.2801 24.2877L9.6304 18.6237C9.18625 19.0667 8.83388 19.593 8.59347 20.1723L15.9826 23.2385ZM15.2837 24.2841L24.5134 15.0544L18.8565 9.39754L9.62682 18.6272L15.2837 24.2841ZM24.5169 15.0508C24.2168 15.3517 23.8603 15.5904 23.4678 15.7533L20.4016 8.36418C19.8222 8.60461 19.2959 8.95698 18.8529 9.40111L24.5169 15.0508ZM23.4678 15.7533C23.0753 15.9162 22.6545 16 22.2295 16V8C21.6022 8 20.981 8.12376 20.4016 8.36418L23.4678 15.7533ZM22.2295 16C21.8045 16 21.3837 15.9162 20.9912 15.7533L24.0573 8.36418C23.4779 8.12376 22.8568 8 22.2295 8V16ZM20.9912 15.7533C20.5987 15.5904 20.2422 15.3517 19.942 15.0508L25.606 9.40111C25.163 8.95698 24.6367 8.60461 24.0573 8.36418L20.9912 15.7533Z" fill="#406BBF" mask="url(#path-2-inside-1_1278_546)"/>
<rect x="0.729279" y="0.5" width="33.7707" height="43" rx="4.5" stroke="#406BBF"/>
</svg>
