<svg width="15" height="15" viewBox="0 0 15 15" fill="none" xmlns="http://www.w3.org/2000/svg">
<path d="M9.37643 6.13623L9.37642 6.13622L8.83641 5.59485C8.83641 5.59484 8.8364 5.59483 8.83639 5.59482C8.81711 5.57575 8.79109 5.56505 8.76398 5.56505C8.73686 5.56505 8.71084 5.57575 8.69156 5.59483L9.37643 6.13623ZM9.37643 6.13623C9.41614 6.17594 9.41614 6.24134 9.37643 6.28106L6.28112 9.37637C6.2414 9.41608 6.176 9.41608 6.13629 9.37637L5.59491 8.83499C5.57582 8.81571 5.56511 8.78968 5.56511 8.76255C5.56511 8.73542 5.57582 8.70939 5.59491 8.69011L8.69154 5.59485L9.37643 6.13623ZM8.27042 9.57228C8.29755 9.57228 8.32358 9.58299 8.34286 9.60207L8.88424 10.1435C8.92395 10.1832 8.92395 10.2486 8.88424 10.2883L7.29557 11.877C6.14297 13.0309 4.27562 13.0296 3.12164 11.877C1.96767 10.7243 1.96767 8.857 3.12164 7.70303L4.71029 6.11438C4.72957 6.09529 4.7556 6.08458 4.78273 6.08458C4.80986 6.08458 4.83589 6.09529 4.85516 6.11438L5.39928 6.6585C5.43899 6.69821 5.43899 6.76361 5.39928 6.80332L3.81061 8.39199C3.07257 9.13003 2.99429 10.3744 3.8106 11.1907C4.62556 12.007 5.8713 11.9288 6.60934 11.1907L8.19799 9.60207C8.21726 9.58299 8.24329 9.57228 8.27042 9.57228ZM7.70446 3.12158C8.85706 1.96761 10.7244 1.96761 11.8784 3.12158C13.031 4.27555 13.031 6.14291 11.8784 7.29688L10.2897 8.88555C10.25 8.92526 10.1846 8.92526 10.1449 8.88555L9.60077 8.34143C9.58168 8.32215 9.57097 8.29612 9.57097 8.26899C9.57097 8.24187 9.58168 8.21583 9.60077 8.19656L11.1894 6.60791C11.9275 5.86987 12.0057 4.6255 11.1894 3.80918C10.3745 2.99286 9.12872 3.07114 8.39069 3.80918L6.80201 5.39785C6.7623 5.43757 6.6969 5.43757 6.65719 5.39785L6.11444 4.8551C6.09535 4.83583 6.08465 4.80979 6.08465 4.78267C6.08465 4.75554 6.09535 4.72951 6.11444 4.71023L7.70445 3.12158L7.70446 3.12158Z" fill="#406BBF" stroke="#406BBF" stroke-width="0.0136719"/>
</svg>
