<svg width="24" height="8" viewBox="0 0 24 8" fill="none" xmlns="http://www.w3.org/2000/svg">
<path d="M3 0.5C2.60603 0.5 2.21593 0.59053 1.85195 0.766421C1.48797 0.942313 1.15726 1.20012 0.87868 1.52513C0.600104 1.85013 0.379126 2.23597 0.228361 2.66061C0.0775973 3.08525 0 3.54037 0 4C0 4.45963 0.0775973 4.91475 0.228361 5.33939C0.379126 5.76403 0.600104 6.14987 0.87868 6.47487C1.15726 6.79988 1.48797 7.05769 1.85195 7.23358C2.21593 7.40947 2.60603 7.5 3 7.5C3.79565 7.5 4.55871 7.13125 5.12132 6.47487C5.68393 5.8185 6 4.92826 6 4C6 3.07174 5.68393 2.1815 5.12132 1.52513C4.55871 0.868749 3.79565 0.5 3 0.5ZM3 2.5C3.34099 2.5 3.66802 2.65804 3.90914 2.93934C4.15026 3.22064 4.28571 3.60218 4.28571 4C4.28571 4.39782 4.15026 4.77936 3.90914 5.06066C3.66802 5.34196 3.34099 5.5 3 5.5C2.65901 5.5 2.33198 5.34196 2.09086 5.06066C1.84974 4.77936 1.71429 4.39782 1.71429 4C1.71429 3.60218 1.84974 3.22064 2.09086 2.93934C2.33198 2.65804 2.65901 2.5 3 2.5ZM12 0.5C12.394 0.5 12.7841 0.59053 13.1481 0.766421C13.512 0.942313 13.8427 1.20012 14.1213 1.52513C14.3999 1.85013 14.6209 2.23597 14.7716 2.66061C14.9224 3.08525 15 3.54037 15 4C15 4.45963 14.9224 4.91475 14.7716 5.33939C14.6209 5.76403 14.3999 6.14987 14.1213 6.47487C13.8427 6.79988 13.512 7.05769 13.1481 7.23358C12.7841 7.40947 12.394 7.5 12 7.5C11.2044 7.5 10.4413 7.13125 9.87868 6.47487C9.31607 5.8185 9 4.92826 9 4C9 3.07174 9.31607 2.1815 9.87868 1.52513C10.4413 0.868749 11.2044 0.5 12 0.5ZM12 2.5C11.659 2.5 11.332 2.65804 11.0909 2.93934C10.8497 3.22064 10.7143 3.60218 10.7143 4C10.7143 4.39782 10.8497 4.77936 11.0909 5.06066C11.332 5.34196 11.659 5.5 12 5.5C12.341 5.5 12.668 5.34196 12.9091 5.06066C13.1503 4.77936 13.2857 4.39782 13.2857 4C13.2857 3.60218 13.1503 3.22064 12.9091 2.93934C12.668 2.65804 12.341 2.5 12 2.5ZM21 0.5C21.394 0.5 21.7841 0.59053 22.1481 0.766421C22.512 0.942313 22.8427 1.20012 23.1213 1.52513C23.3999 1.85013 23.6209 2.23597 23.7716 2.66061C23.9224 3.08525 24 3.54037 24 4C24 4.45963 23.9224 4.91475 23.7716 5.33939C23.6209 5.76403 23.3999 6.14987 23.1213 6.47487C22.8427 6.79988 22.512 7.05769 22.1481 7.23358C21.7841 7.40947 21.394 7.5 21 7.5C20.2044 7.5 19.4413 7.13125 18.8787 6.47487C18.3161 5.8185 18 4.92826 18 4C18 3.07174 18.3161 2.1815 18.8787 1.52513C19.4413 0.868749 20.2044 0.5 21 0.5ZM21 2.5C20.659 2.5 20.332 2.65804 20.0909 2.93934C19.8497 3.22064 19.7143 3.60218 19.7143 4C19.7143 4.39782 19.8497 4.77936 20.0909 5.06066C20.332 5.34196 20.659 5.5 21 5.5C21.341 5.5 21.668 5.34196 21.9091 5.06066C22.1503 4.77936 22.2857 4.39782 22.2857 4C22.2857 3.60218 22.1503 3.22064 21.9091 2.93934C21.668 2.65804 21.341 2.5 21 2.5Z" fill="#132039"/>
</svg>
